<?xml version="1.0" encoding="UTF-8" standalone="no"?>
<!DOCTYPE svg PUBLIC "-//W3C//DTD SVG 1.1//EN"
 "http://www.w3.org/Graphics/SVG/1.1/DTD/svg11.dtd">
<!-- Generated by graphviz version 2.38.0 (20140413.2041)
 -->
<!-- Title: %3 Pages: 1 -->
<svg width="1002pt" height="447pt"
 viewBox="0.00 0.00 1002.00 446.86" xmlns="http://www.w3.org/2000/svg" xmlns:xlink="http://www.w3.org/1999/xlink">
<g id="graph0" class="graph" transform="scale(1 1) rotate(0) translate(4 442.86)">
<title>%3</title>
<polygon fill="white" stroke="none" points="-4,4 -4,-442.86 998,-442.86 998,4 -4,4"/>
<g id="clust1" class="cluster"><title>clusterobs_idx (384)</title>
<path fill="none" stroke="black" d="M672,-129.953C672,-129.953 974,-129.953 974,-129.953 980,-129.953 986,-135.953 986,-141.953 986,-141.953 986,-312.93 986,-312.93 986,-318.93 980,-324.93 974,-324.93 974,-324.93 672,-324.93 672,-324.93 666,-324.93 660,-318.93 660,-312.93 660,-312.93 660,-141.953 660,-141.953 660,-135.953 666,-129.953 672,-129.953"/>
<text text-anchor="middle" x="938.5" y="-137.753" font-family="Times New Roman,serif" font-size="14.00">obs_idx (384)</text>
</g>
<g id="clust7" class="cluster"><title>cluster173</title>
<path fill="none" stroke="black" d="M669,-8C669,-8 779,-8 779,-8 785,-8 791,-14 791,-20 791,-20 791,-109.953 791,-109.953 791,-115.953 785,-121.953 779,-121.953 779,-121.953 669,-121.953 669,-121.953 663,-121.953 657,-115.953 657,-109.953 657,-109.953 657,-20 657,-20 657,-14 663,-8 669,-8"/>
<text text-anchor="middle" x="772.5" y="-15.8" font-family="Times New Roman,serif" font-size="14.00">173</text>
</g>
<g id="clust6" class="cluster"><title>cluster211</title>
<path fill="none" stroke="black" d="M850,-8C850,-8 946,-8 946,-8 952,-8 958,-14 958,-20 958,-20 958,-109.953 958,-109.953 958,-115.953 952,-121.953 946,-121.953 946,-121.953 850,-121.953 850,-121.953 844,-121.953 838,-115.953 838,-109.953 838,-109.953 838,-20 838,-20 838,-14 844,-8 850,-8"/>
<text text-anchor="middle" x="939.5" y="-15.8" font-family="Times New Roman,serif" font-size="14.00">211</text>
</g>
<g id="clust3" class="cluster"><title>clusteradj_idx (96)</title>
<path fill="none" stroke="black" d="M225,-221.953C225,-221.953 285,-221.953 285,-221.953 291,-221.953 297,-227.953 297,-233.953 297,-233.953 297,-323.907 297,-323.907 297,-329.907 291,-335.907 285,-335.907 285,-335.907 225,-335.907 225,-335.907 219,-335.907 213,-329.907 213,-323.907 213,-323.907 213,-233.953 213,-233.953 213,-227.953 219,-221.953 225,-221.953"/>
<text text-anchor="middle" x="255" y="-229.753" font-family="Times New Roman,serif" font-size="14.00">adj_idx (96)</text>
</g>
<g id="clust4" class="cluster"><title>clusterspecies_idx (4)</title>
<path fill="none" stroke="black" d="M344,-221.953C344,-221.953 428,-221.953 428,-221.953 434,-221.953 440,-227.953 440,-233.953 440,-233.953 440,-323.907 440,-323.907 440,-329.907 434,-335.907 428,-335.907 428,-335.907 344,-335.907 344,-335.907 338,-335.907 332,-329.907 332,-323.907 332,-323.907 332,-233.953 332,-233.953 332,-227.953 338,-221.953 344,-221.953"/>
<text text-anchor="middle" x="389" y="-229.753" font-family="Times New Roman,serif" font-size="14.00">species_idx (4)</text>
</g>
<g id="clust2" class="cluster"><title>clusterobs_idx (384) x features_idx (9)</title>
<path fill="none" stroke="black" d="M20,-232.93C20,-232.93 193,-232.93 193,-232.93 199,-232.93 205,-238.93 205,-244.93 205,-244.93 205,-312.93 205,-312.93 205,-318.93 199,-324.93 193,-324.93 193,-324.93 20,-324.93 20,-324.93 14,-324.93 8,-318.93 8,-312.93 8,-312.93 8,-244.93 8,-244.93 8,-238.93 14,-232.93 20,-232.93"/>
<text text-anchor="middle" x="106.5" y="-240.73" font-family="Times New Roman,serif" font-size="14.00">obs_idx (384) x features_idx (9)</text>
</g>
<g id="clust5" class="cluster"><title>clusterspecies_idx (4) x features_idx (9)</title>
<path fill="none" stroke="black" d="M460,-221.953C460,-221.953 640,-221.953 640,-221.953 646,-221.953 652,-227.953 652,-233.953 652,-233.953 652,-323.907 652,-323.907 652,-329.907 646,-335.907 640,-335.907 640,-335.907 460,-335.907 460,-335.907 454,-335.907 448,-329.907 448,-323.907 448,-323.907 448,-233.953 448,-233.953 448,-227.953 454,-221.953 460,-221.953"/>
<text text-anchor="middle" x="550" y="-229.753" font-family="Times New Roman,serif" font-size="14.00">species_idx (4) x features_idx (9)</text>
</g>
<!-- mu -->
<g id="node1" class="node"><title>mu</title>
<polygon fill="none" stroke="black" points="757.5,-213.953 668.5,-213.953 668.5,-160.953 757.5,-160.953 757.5,-213.953"/>
<text text-anchor="middle" x="713" y="-198.753" font-family="Times New Roman,serif" font-size="14.00">mu</text>
<text text-anchor="middle" x="713" y="-183.753" font-family="Times New Roman,serif" font-size="14.00">~</text>
<text text-anchor="middle" x="713" y="-168.753" font-family="Times New Roman,serif" font-size="14.00">Deterministic</text>
</g>
<!-- y_missing -->
<g id="node15" class="node"><title>y_missing</title>
<ellipse fill="none" stroke="black" cx="898" cy="-76.4767" rx="51.7379" ry="37.4533"/>
<text text-anchor="middle" x="898" y="-87.7767" font-family="Times New Roman,serif" font-size="14.00">y_missing</text>
<text text-anchor="middle" x="898" y="-72.7767" font-family="Times New Roman,serif" font-size="14.00">~</text>
<text text-anchor="middle" x="898" y="-57.7767" font-family="Times New Roman,serif" font-size="14.00">Poisson</text>
</g>
<!-- mu&#45;&gt;y_missing -->
<g id="edge13" class="edge"><title>mu&#45;&gt;y_missing</title>
<path fill="none" stroke="black" d="M756.374,-160.903C784.345,-144.426 820.759,-122.976 849.659,-105.953"/>
<polygon fill="black" stroke="black" points="851.529,-108.913 858.369,-100.822 847.976,-102.882 851.529,-108.913"/>
</g>
<!-- y_observed -->
<g id="node16" class="node"><title>y_observed</title>
<ellipse fill="lightgrey" stroke="black" cx="724" cy="-76.4767" rx="58.8803" ry="37.4533"/>
<text text-anchor="middle" x="724" y="-87.7767" font-family="Times New Roman,serif" font-size="14.00">y_observed</text>
<text text-anchor="middle" x="724" y="-72.7767" font-family="Times New Roman,serif" font-size="14.00">~</text>
<text text-anchor="middle" x="724" y="-57.7767" font-family="Times New Roman,serif" font-size="14.00">Poisson</text>
</g>
<!-- mu&#45;&gt;y_observed -->
<g id="edge14" class="edge"><title>mu&#45;&gt;y_observed</title>
<path fill="none" stroke="black" d="M715.579,-160.903C716.691,-149.883 718.028,-136.638 719.306,-123.981"/>
<polygon fill="black" stroke="black" points="722.79,-124.31 720.312,-114.009 715.826,-123.607 722.79,-124.31"/>
</g>
<!-- y -->
<g id="node2" class="node"><title>y</title>
<polygon fill="none" stroke="black" points="977.5,-316.93 888.5,-316.93 888.5,-263.93 977.5,-263.93 977.5,-316.93"/>
<text text-anchor="middle" x="933" y="-301.73" font-family="Times New Roman,serif" font-size="14.00">y</text>
<text text-anchor="middle" x="933" y="-286.73" font-family="Times New Roman,serif" font-size="14.00">~</text>
<text text-anchor="middle" x="933" y="-271.73" font-family="Times New Roman,serif" font-size="14.00">Deterministic</text>
</g>
<!-- species_idx -->
<g id="node3" class="node"><title>species_idx</title>
<path fill="lightgrey" stroke="black" d="M858,-316.93C858,-316.93 790,-316.93 790,-316.93 784,-316.93 778,-310.93 778,-304.93 778,-304.93 778,-275.93 778,-275.93 778,-269.93 784,-263.93 790,-263.93 790,-263.93 858,-263.93 858,-263.93 864,-263.93 870,-269.93 870,-275.93 870,-275.93 870,-304.93 870,-304.93 870,-310.93 864,-316.93 858,-316.93"/>
<text text-anchor="middle" x="824" y="-301.73" font-family="Times New Roman,serif" font-size="14.00">species_idx</text>
<text text-anchor="middle" x="824" y="-286.73" font-family="Times New Roman,serif" font-size="14.00">~</text>
<text text-anchor="middle" x="824" y="-271.73" font-family="Times New Roman,serif" font-size="14.00">ConstantData</text>
</g>
<!-- species_idx&#45;&gt;mu -->
<g id="edge8" class="edge"><title>species_idx&#45;&gt;mu</title>
<path fill="none" stroke="black" d="M806.518,-263.888C796.522,-250.426 783.175,-234.212 769,-221.953 768.012,-221.099 766.999,-220.253 765.966,-219.418"/>
<polygon fill="black" stroke="black" points="767.814,-216.429 757.717,-213.222 763.61,-222.026 767.814,-216.429"/>
</g>
<!-- adj_idx -->
<g id="node4" class="node"><title>adj_idx</title>
<path fill="lightgrey" stroke="black" d="M748,-316.93C748,-316.93 680,-316.93 680,-316.93 674,-316.93 668,-310.93 668,-304.93 668,-304.93 668,-275.93 668,-275.93 668,-269.93 674,-263.93 680,-263.93 680,-263.93 748,-263.93 748,-263.93 754,-263.93 760,-269.93 760,-275.93 760,-275.93 760,-304.93 760,-304.93 760,-310.93 754,-316.93 748,-316.93"/>
<text text-anchor="middle" x="714" y="-301.73" font-family="Times New Roman,serif" font-size="14.00">adj_idx</text>
<text text-anchor="middle" x="714" y="-286.73" font-family="Times New Roman,serif" font-size="14.00">~</text>
<text text-anchor="middle" x="714" y="-271.73" font-family="Times New Roman,serif" font-size="14.00">ConstantData</text>
</g>
<!-- adj_idx&#45;&gt;mu -->
<g id="edge12" class="edge"><title>adj_idx&#45;&gt;mu</title>
<path fill="none" stroke="black" d="M713.745,-263.688C713.626,-251.7 713.483,-237.24 713.354,-224.213"/>
<polygon fill="black" stroke="black" points="716.853,-224.113 713.254,-214.148 709.854,-224.182 716.853,-224.113"/>
</g>
<!-- X -->
<g id="node5" class="node"><title>X</title>
<path fill="lightgrey" stroke="black" d="M185,-316.93C185,-316.93 117,-316.93 117,-316.93 111,-316.93 105,-310.93 105,-304.93 105,-304.93 105,-275.93 105,-275.93 105,-269.93 111,-263.93 117,-263.93 117,-263.93 185,-263.93 185,-263.93 191,-263.93 197,-269.93 197,-275.93 197,-275.93 197,-304.93 197,-304.93 197,-310.93 191,-316.93 185,-316.93"/>
<text text-anchor="middle" x="151" y="-301.73" font-family="Times New Roman,serif" font-size="14.00">X</text>
<text text-anchor="middle" x="151" y="-286.73" font-family="Times New Roman,serif" font-size="14.00">~</text>
<text text-anchor="middle" x="151" y="-271.73" font-family="Times New Roman,serif" font-size="14.00">ConstantData</text>
</g>
<!-- X&#45;&gt;mu -->
<g id="edge11" class="edge"><title>X&#45;&gt;mu</title>
<path fill="none" stroke="black" d="M165.804,-263.69C175.911,-248.726 190.761,-231.071 209,-221.953 248.347,-202.283 535.64,-192.868 658.028,-189.716"/>
<polygon fill="black" stroke="black" points="658.39,-193.208 668.299,-189.456 658.213,-186.21 658.39,-193.208"/>
</g>
<!-- sigma_phi -->
<g id="node6" class="node"><title>sigma_phi</title>
<ellipse fill="none" stroke="black" cx="124" cy="-401.383" rx="52.1524" ry="37.4533"/>
<text text-anchor="middle" x="124" y="-412.683" font-family="Times New Roman,serif" font-size="14.00">sigma_phi</text>
<text text-anchor="middle" x="124" y="-397.683" font-family="Times New Roman,serif" font-size="14.00">~</text>
<text text-anchor="middle" x="124" y="-382.683" font-family="Times New Roman,serif" font-size="14.00">Uniform</text>
</g>
<!-- phi -->
<g id="node12" class="node"><title>phi</title>
<ellipse fill="none" stroke="black" cx="254" cy="-290.43" rx="32.5538" ry="37.4533"/>
<text text-anchor="middle" x="254" y="-301.73" font-family="Times New Roman,serif" font-size="14.00">phi</text>
<text text-anchor="middle" x="254" y="-286.73" font-family="Times New Roman,serif" font-size="14.00">~</text>
<text text-anchor="middle" x="254" y="-271.73" font-family="Times New Roman,serif" font-size="14.00">CAR</text>
</g>
<!-- sigma_phi&#45;&gt;phi -->
<g id="edge1" class="edge"><title>sigma_phi&#45;&gt;phi</title>
<path fill="none" stroke="black" d="M160.384,-374.412C175.747,-363.034 193.605,-349.253 209,-335.907 213.466,-332.035 218.043,-327.825 222.487,-323.591"/>
<polygon fill="black" stroke="black" points="225.058,-325.974 229.797,-316.498 220.183,-320.95 225.058,-325.974"/>
</g>
<!-- intercept_sigma -->
<g id="node7" class="node"><title>intercept_sigma</title>
<ellipse fill="none" stroke="black" cx="351" cy="-401.383" rx="73.5782" ry="37.4533"/>
<text text-anchor="middle" x="351" y="-412.683" font-family="Times New Roman,serif" font-size="14.00">intercept_sigma</text>
<text text-anchor="middle" x="351" y="-397.683" font-family="Times New Roman,serif" font-size="14.00">~</text>
<text text-anchor="middle" x="351" y="-382.683" font-family="Times New Roman,serif" font-size="14.00">Exponential</text>
</g>
<!-- intercept -->
<g id="node13" class="node"><title>intercept</title>
<ellipse fill="none" stroke="black" cx="386" cy="-290.43" rx="45.9239" ry="37.4533"/>
<text text-anchor="middle" x="386" y="-301.73" font-family="Times New Roman,serif" font-size="14.00">intercept</text>
<text text-anchor="middle" x="386" y="-286.73" font-family="Times New Roman,serif" font-size="14.00">~</text>
<text text-anchor="middle" x="386" y="-271.73" font-family="Times New Roman,serif" font-size="14.00">Normal</text>
</g>
<!-- intercept_sigma&#45;&gt;intercept -->
<g id="edge4" class="edge"><title>intercept_sigma&#45;&gt;intercept</title>
<path fill="none" stroke="black" d="M362.654,-364.103C365.488,-355.284 368.552,-345.746 371.499,-336.572"/>
<polygon fill="black" stroke="black" points="374.908,-337.402 374.634,-326.811 368.243,-335.261 374.908,-337.402"/>
</g>
<!-- betas_bar -->
<g id="node8" class="node"><title>betas_bar</title>
<ellipse fill="none" stroke="black" cx="638" cy="-401.383" rx="50.41" ry="37.4533"/>
<text text-anchor="middle" x="638" y="-412.683" font-family="Times New Roman,serif" font-size="14.00">betas_bar</text>
<text text-anchor="middle" x="638" y="-397.683" font-family="Times New Roman,serif" font-size="14.00">~</text>
<text text-anchor="middle" x="638" y="-382.683" font-family="Times New Roman,serif" font-size="14.00">Normal</text>
</g>
<!-- betas -->
<g id="node14" class="node"><title>betas</title>
<ellipse fill="none" stroke="black" cx="603" cy="-290.43" rx="41.0244" ry="37.4533"/>
<text text-anchor="middle" x="603" y="-301.73" font-family="Times New Roman,serif" font-size="14.00">betas</text>
<text text-anchor="middle" x="603" y="-286.73" font-family="Times New Roman,serif" font-size="14.00">~</text>
<text text-anchor="middle" x="603" y="-271.73" font-family="Times New Roman,serif" font-size="14.00">Normal</text>
</g>
<!-- betas_bar&#45;&gt;betas -->
<g id="edge6" class="edge"><title>betas_bar&#45;&gt;betas</title>
<path fill="none" stroke="black" d="M626.54,-364.708C623.64,-355.68 620.487,-345.867 617.46,-336.443"/>
<polygon fill="black" stroke="black" points="620.757,-335.264 614.367,-326.813 614.093,-337.405 620.757,-335.264"/>
</g>
<!-- betas_sigma -->
<g id="node9" class="node"><title>betas_sigma</title>
<ellipse fill="none" stroke="black" cx="767" cy="-401.383" rx="60.623" ry="37.4533"/>
<text text-anchor="middle" x="767" y="-412.683" font-family="Times New Roman,serif" font-size="14.00">betas_sigma</text>
<text text-anchor="middle" x="767" y="-397.683" font-family="Times New Roman,serif" font-size="14.00">~</text>
<text text-anchor="middle" x="767" y="-382.683" font-family="Times New Roman,serif" font-size="14.00">Exponential</text>
</g>
<!-- betas_sigma&#45;&gt;betas -->
<g id="edge5" class="edge"><title>betas_sigma&#45;&gt;betas</title>
<path fill="none" stroke="black" d="M721.622,-376.354C701.078,-364.89 676.792,-350.507 656,-335.907 650.71,-332.192 645.302,-328.074 640.06,-323.886"/>
<polygon fill="black" stroke="black" points="641.956,-320.915 631.998,-317.295 637.525,-326.334 641.956,-320.915"/>
</g>
<!-- intercept_bar -->
<g id="node10" class="node"><title>intercept_bar</title>
<ellipse fill="none" stroke="black" cx="506" cy="-401.383" rx="63.7795" ry="37.4533"/>
<text text-anchor="middle" x="506" y="-412.683" font-family="Times New Roman,serif" font-size="14.00">intercept_bar</text>
<text text-anchor="middle" x="506" y="-397.683" font-family="Times New Roman,serif" font-size="14.00">~</text>
<text text-anchor="middle" x="506" y="-382.683" font-family="Times New Roman,serif" font-size="14.00">Normal</text>
</g>
<!-- intercept_bar&#45;&gt;intercept -->
<g id="edge3" class="edge"><title>intercept_bar&#45;&gt;intercept</title>
<path fill="none" stroke="black" d="M471.934,-369.453C457.064,-355.952 439.563,-340.063 424.249,-326.158"/>
<polygon fill="black" stroke="black" points="426.222,-323.222 416.465,-319.091 421.516,-328.404 426.222,-323.222"/>
</g>
<!-- alpha -->
<g id="node11" class="node"><title>alpha</title>
<ellipse fill="none" stroke="black" cx="227" cy="-401.383" rx="32.5538" ry="37.4533"/>
<text text-anchor="middle" x="227" y="-412.683" font-family="Times New Roman,serif" font-size="14.00">alpha</text>
<text text-anchor="middle" x="227" y="-397.683" font-family="Times New Roman,serif" font-size="14.00">~</text>
<text text-anchor="middle" x="227" y="-382.683" font-family="Times New Roman,serif" font-size="14.00">Beta</text>
</g>
<!-- alpha&#45;&gt;phi -->
<g id="edge2" class="edge"><title>alpha&#45;&gt;phi</title>
<path fill="none" stroke="black" d="M235.766,-365.009C238.029,-355.878 240.495,-345.927 242.861,-336.379"/>
<polygon fill="black" stroke="black" points="246.27,-337.175 245.278,-326.627 239.475,-335.491 246.27,-337.175"/>
</g>
<!-- phi&#45;&gt;mu -->
<g id="edge9" class="edge"><title>phi&#45;&gt;mu</title>
<path fill="none" stroke="black" d="M275.713,-262.392C289.117,-247.756 307.617,-230.887 328,-221.953 385.765,-196.637 566.328,-190.437 658.171,-188.93"/>
<polygon fill="black" stroke="black" points="658.437,-192.426 668.383,-188.776 658.331,-185.427 658.437,-192.426"/>
</g>
<!-- intercept&#45;&gt;mu -->
<g id="edge7" class="edge"><title>intercept&#45;&gt;mu</title>
<path fill="none" stroke="black" d="M406.466,-256.459C416.211,-243.573 429.026,-229.985 444,-221.953 479.947,-202.672 590.557,-194.142 658.23,-190.645"/>
<polygon fill="black" stroke="black" points="658.483,-194.137 668.297,-190.145 658.136,-187.145 658.483,-194.137"/>
</g>
<!-- betas&#45;&gt;mu -->
<g id="edge10" class="edge"><title>betas&#45;&gt;mu</title>
<path fill="none" stroke="black" d="M624.018,-257.78C632.979,-245.698 644.11,-232.343 656,-221.953 657.307,-220.811 658.659,-219.687 660.046,-218.582"/>
<polygon fill="black" stroke="black" points="662.333,-221.244 668.297,-212.487 658.174,-215.614 662.333,-221.244"/>
</g>
<!-- y_missing&#45;&gt;y -->
<g id="edge15" class="edge"><title>y_missing&#45;&gt;y</title>
<path fill="none" stroke="black" d="M903.994,-113.773C910.446,-152.846 920.645,-214.613 927.072,-253.531"/>
<polygon fill="black" stroke="black" points="923.696,-254.567 928.778,-263.863 930.602,-253.427 923.696,-254.567"/>
</g>
<!-- y_observed&#45;&gt;y -->
<g id="edge16" class="edge"><title>y_observed&#45;&gt;y</title>
<path fill="none" stroke="black" d="M758.613,-107.128C790.957,-135.429 839.978,-179.874 879,-221.953 888.756,-232.474 898.758,-244.55 907.461,-255.551"/>
<polygon fill="black" stroke="black" points="904.922,-257.986 913.838,-263.711 910.438,-253.676 904.922,-257.986"/>
</g>
</g>
</svg>
